/* XPM */
static char * C:\Users\ut1\Desktop\Pdn thing\Bug_xpm[] = {
"32 32 5 1",
" 	c #FF0080",
".	c #000000",
"+	c #8F2138",
"@	c #8F8121",
"#	c #8F8F8F",
"         .....                  ",
"         .+++..  ....           ",
"         .+++..  .+++.          ",
"         .........+++.          ",
"         ..@@@@@@..+..          ",
"         .@@@@@@@@..            ",
"         .@@@@@@@@@.            ",
"          .@@@@@@@@.            ",
"         ...........            ",
"        ..@@@@@@@@@..           ",
"        .@@@.......@@.          ",
"        .@...######.@.          ",
"        .@..##.####.....        ",
"     .....####..####..  ..      ",
"     .  .#####..#####.    .     ",
"       ..#####..#####.    ..    ",
"       .#####...#####..    .    ",
"      ..#####.@.######...       ",
"     . .#####.@.######. ..      ",
"     . ..####.@..#####.  ..     ",
"        ..##..@@.#####.   .     ",
"         ....@@@..###..         ",
"         ...@@@@@..#...         ",
"        .. ..........  .        ",
"       .     ..        .        ",
"       .               .        ",
"                       .        ",
"                                ",
"                                ",
"                                ",
"                                ",
"                                "};
