/* XPM */
static const char * Antivirus[] = {
"16 16 6 1",
" 	c None",
".	c #FF0080",
"+	c #FFD87F",
"@	c #FFA100",
"#	c #E58900",
"$	c #FFFFFF",
"................",
".........+++@#..",
"........+@@@@@#.",
"..++++.+@@@@@@#.",
".++@@@@@@@@@@@#.",
".+@@@$@@@$#@@@#.",
".@@@@$$@$$#@@##.",
".@@@@@$@$#@@##..",
"..@@@@@$#@@@#...",
"...@@@$#$@@@@#..",
"...@@$$#$$@@@@#.",
"..+@@$###$@@@@#.",
".+@@@@####@@@@#.",
".+@@@#..##@@@##.",
"..@@@@....####..",
"................"};
