/* XPM */
static const char * BeetleUpRight2[] = {
"37 37 8 1",
" 	c None",
".	c #FF0080",
"+	c #27202D",
"@	c #000000",
"#	c #3E3544",
"$	c #CC0000",
"%	c #5B5260",
"&	c #7C727F",
".............................+++.....",
"...............@@@..........+++++....",
"..............@@@@@........+++#++....",
".............@@@@@@........++##+.....",
".............@@@@@.........+###+..++.",
"........@....@@@@..........+###++++++",
".......@@@...@@@@+###$$...+++######++",
"......@@@@...@@++#####%%%%%+######+++",
"......@@@....+++###&#&&%&%%%##+##+++.",
"......@@@...+++###&&%&&&&&%%%++++++..",
"......@@@@.+++###%%%%%&&&&&%%%+......",
"......@@@@+++%###%&&%&&&&&&&%%.......",
".......@@+++%%%##%&&%&&&&&&&&%.......",
"...@@...+++##%&&%%%%%%&&&&&&%%.......",
"..@@@@.+++###&&##%&&%&&&&&&&&%$......",
"..@@@@+++%###&%###%&%&&%&&%&&#$......",
"..@@@@++%%%##&%%###%%%%%%%%%###......",
"...@@@+++%##&&&#####%&&%&&%&&##......",
"....@++++%#&&&%%#&###%&%&&%&###......",
".....+++%%%&&#%%&&&###%%%%%###+......",
".....++++%%%###&&&#####%#####+.......",
".....+++##%###%%&%%#%##&####++.......",
"......++##%##%%%#%%&%%&&%##++@@.@@...",
"......+++%%%%%%###&&&&&%%%+++@@@@@@..",
".......+++%%%%###&&&####%+++@@@@@@@..",
"........+++%%%##%&&#####+++.@@@@@@...",
".........+++%%%%%%##%##+++....@@@....",
"..........+++%##%%%%%%+++@@..........",
"...........+++##+%++%+++@@@@.........",
"............+++++++++++.@@@@.........",
".............+++++++++...@@@.........",
"...............+++@@+...@@@@.........",
".................@@@@...@@@@.........",
"................@@@@@....@@..........",
"................@@@@.................",
".................@@..................",
"....................................."};
