/* XPM */
static const char * BeetleURight1[] = {
"38 34 11 1",
" 	c None",
".	c #FF0080",
"+	c #000000",
"@	c #27202D",
"#	c #3E3544",
"$	c #CC0000",
"%	c #5B5260",
"&	c #7C727F",
"*	c #040002",
"=	c #0A0005",
"-	c #010001",
".................++...................",
"...............+++++..................",
".........++...++++++..................",
"........+++...++++++..................",
".......++++...+++++..............@@...",
".......++++...+@@@@@##.........@@@@...",
".......+++++.@@@@@#####$$.....@@@@@@..",
"..++....++@@@@@@#######$$.....@###@@..",
".+++....@@@@@%%###%&&&%%%%%..@####@...",
".++*=.@@@@@##%%###%%&%&&%%%%@@###@@...",
".++*-@@@%#####&&##%&%&&&&&&%%####@@@@@",
".++++@@@%%##&&&&%%&&%&&&&&&%%#######@@",
"..++@@@@%###&&%##%%%%&&&&&&&%%@@###@@@",
"...@@@%%####&%%##&&%%&&&&&&&%%@@@@@@@@",
"...@@@@%%&&&&%####&&&%&&&&&&%%...@@...",
"...@@@@%%&&&%%####%%&%&&&&&&%.........",
"...@@###%%##%%#&##%%&%%&&&&%%.........",
"...@@@#%####&&&&&##&&%%%&&&%$$........",
"....@@%%##%%%&&####&%&&%%%%#$$........",
"....@@@%%%%%%%%#####%%&%&&%##.........",
".....@@%%%####%%%%##%#%%&&###.........",
".....@@%%%###&&&%%&&###%####..........",
"......@@%%#%&&&&#&&&&#####@...........",
"......@@##%%%&###&&%%###@@............",
".......@@##%%#######%%@@++.+++........",
".......@@@@%%#%%###@@@@@+++++++.......",
"........@@@@@@%%#@@@@@.++++++++.......",
"..........@@@@@@@@@@+..+++++++........",
"..........+++@@@@++++....+++..........",
".........++++@@..+++++................",
".........++++.....+++++...............",
".........+++++....+++++...............",
".........+++++.....+++................",
"..........+++........................."};
