/* XPM */
static const char * BeetleURight3[] = {
"38 34 8 1",
" 	c None",
".	c #FF0080",
"+	c #000000",
"@	c #27202D",
"#	c #3E3544",
"$	c #CC0000",
"%	c #5B5260",
"&	c #7C727F",
"......................................",
"..............++......................",
".............++++.....................",
"......+++....++++.....................",
"......++++...++++................@@...",
"......++++++..++++..##.........@@@@...",
".......+++++.@@@++.####$$....@@@@@@@..",
"........++@@@@@@#######$$%%..@@###@@..",
".++.....@@@@@%%###%&&&##%%%%@@####@...",
"++++..@@@@@##%%###%%&%&&&&%%@####@@...",
"+++++@@@%#####&&##%&%%&&&&&%%#####@@@@",
"+++++@@@%%##&&&&%%&&&%&&&&&%%#######@@",
".++@@@@@%###&&%##%%%%&&&&&&&%%@@###@@@",
"...@@@%%####&%%##&&%%&&&&&&&%%@@@@@@@@",
"...@@@@%%&&&&%####&&&&&&&&&&%%..@@@@@.",
"...@@@@%%&&&%%####%%&&&&&&&&%.........",
"...@@###%%##%%#&##%%&%%&&&&%%.........",
"...@@@#%####&&&&&##&&%%%%&&%$$........",
"....@@%%##%%%&&####&%&&&%%##$$........",
"....@@@%%%%%%%%#####%%&%&&##..........",
"....@@@%%%####%%%%##%#%%&&###.........",
".....@@%%%###&&&%%&&###%#####.........",
".....@@@%%#%&&&&#&&&&#####+...........",
"......@@##%%%&###&&%%###@+++.++.......",
"......@@@##%%#######%%@@@+++++++......",
".......@@@@%%#%%###@@@@@++++++++......",
".......@@@@@@@%%#@@@@@...++++++.......",
"........@@@@@@@@@@@@+......+++........",
".........@@++@@@@++++++...............",
"...........+++++..++++++..............",
"...........++++++.++++++..............",
"............+++++..+++++..............",
".............++++....++...............",
"......................................"};
