/* XPM */
static const char * BeetleUpR2[] = {
"36 38 8 1",
" 	c None",
".	c #FF0080",
"+	c #27202D",
"@	c #3E3544",
"#	c #000000",
"$	c #CC0000",
"%	c #5B5260",
"&	c #7C727F",
".....................++++...........",
".....................++++...........",
".....................++@+..+++......",
"....................++@@@++++++.....",
"....................++@@++@@+++.....",
".....................+@@@@@@++......",
"..........##.........++@@@@@++......",
"........####.........++@@+@++.......",
".......#####....$$..%%%@@++.........",
".......####..@@@$$%%%%%%%+..........",
".......#####.@@@@%%&&&&%%%..........",
"........#####@@@@&&&&&&&&%..........",
"........####@@&&%&&&&&&&&%%.........",
"...##....###@@&&%%&&&&&&&%%$$.......",
"...###...++@@%%%&%&&&&&&&&@$$.......",
"..#####..++@@@%&&%%&&&&&&&@@@.......",
"..####..++%@@@@%&%%&&&&%%%&@@@......",
"..######++%%&@%%%&&&&%%&%&&@@@......",
"...####+++@%&&@@&&%%&%%&&%&@@.......",
"...####++@@&&&@@@@%%&&%&%%%@@..####.",
".....##++@@&&%%@@@@@@&%%@@@@#######.",
"......++@@@@@%%@@&@@@@@%@@@@######..",
".####.++%%@@&&%@@&&@@@@&&@@+++####..",
".####+++%%@@&&%%&&@@@%%&&%%++###....",
"..###++++@@&&&@%&&%%%%&&@%%++.......",
"..#####++%%%&@@%%&%%&&&&@@++........",
"....##+++%%%%@@%%@@&&@@@@@++##......",
"......++++@%@@@%%@@&&@@@@+++####....",
".......+++@@%%%%@@%&&@@%@++####.....",
".......++++@%%%%@@%%%@%%%++#####....",
"........+++++%%%%%@%%%++++..#####...",
"..........++++++%@@++%++++..####....",
"............++++++@++++++....###....",
"..............+++++++++###.....#....",
".................+++..#####.........",
"......................####..........",
".......................###..........",
"...................................."};
