/* XPM */
static const char * BeetleUp1[] = {
"34 34 8 1",
" 	c None",
".	c #FF0080",
"+	c #27202D",
"@	c #3E3544",
"#	c #5B5260",
"$	c #CC0000",
"%	c #7C727F",
"&	c #000000",
"............++++..++++............",
"............++++..++++............",
"............++@@++@@++............",
"............++@@++@@++............",
"............++@@@@@@++............",
"............++@@@@@@++............",
"..............++@@++..............",
"..............++@@++..............",
"..............######..............",
"..............######..............",
"..........$$##%%%%%%##$$..........",
"..........$$##%%%%%%##$$..........",
"..&&&&..@@@@%%%%%%%%%%@@@@..&&&&..",
"..&&&&..@@@@%%%%%%%%%%@@@@..&&&&..",
"..&&&&..@@%%##%%%%%%##%%@@..&&&&..",
"..&&&&..@@%%##%%%%%%##%%@@..&&&&..",
"..&&&&&&@@##%%##%%##%%##@@&&&&&&..",
"..&&&&&&@@##%%##%%##%%##@@&&&&&&..",
"....&&++@@@@##%%##%%##@@@@++&&....",
"....&&++@@@@##%%##%%##@@@@++&&....",
"......++##%%@@@@@@@@@@%%##++......",
"......++##%%@@@@@@@@@@%%##++......",
"&&&&&&++@@%%##@@%%@@##%%@@++&&&&&&",
"&&&&&&++@@%%##@@%%@@##%%@@++&&&&&&",
"..&&&&++@@@@%%##%%##%%@@@@++&&&&..",
"..&&&&++@@@@%%##%%##%%@@@@++&&&&..",
"......++##@@%%@@##@@%%@@##++......",
"......++##@@%%@@##@@%%@@##++......",
"......++++####@@##@@####++++......",
"......++++####@@##@@####++++......",
"....&&&&++++@@######@@++++&&&&....",
"....&&&&++++@@######@@++++&&&&....",
"..&&&&&&..++++++++++++++..&&&&&&..",
"..&&&&&&..++++++++++++++..&&&&&&.."};
