/* XPM */
static const char * Bug_2_Up[] = {
"19 23 8 1",
" 	c None",
".	c #FF0080",
"+	c #000000",
"@	c #CAD2DB",
"#	c #838383",
"$	c #9EADBE",
"%	c #646464",
"&	c #444444",
"....++.......++....",
"....+@+.....+#+....",
"....+$@+...+@#+....",
"....+@+.....+$+....",
"....+%@+++++$%+....",
"....++#&$##&#+.....",
".....++$@$#%++.....",
".....+%#$#%%%+.....",
".++++&&&&&&&&&++...",
"+$@@&$%%#&%&#&&++..",
"+@+&#$$%#&#&#%&&#+.",
".+&#@$$#$&#&$#&#+++",
".+&#@$@#$&$%$$&#&#+",
"+$&$@$@$@&$##$%#&$+",
"+@&$@#@$@&$#%$%#&$+",
"+@&$@#@$@&#$%$##&++",
"+++$$%@#@&%$%$#%&..",
".+@&$%$#$&%#&$%&+..",
".+$&%%$%$&%#&#%&$+.",
".+++$%#%#&%%&&#+%+.",
"....+@%&&&&&&#++$+.",
".....+@$$#$$#+..++.",
"......+++++++......"};
