/* XPM */
static const char * Cinco[] = {
"5 8 2 1",
" 	c #FFFDFD",
".	c #FF0080",
"     ",
" ....",
" ....",
"   ..",
"... .",
".... ",
".... ",
"    ."};
