/* XPM */
static const char * CincoMoeda[] = {
"8 12 2 1",
" 	c #FFFFFF",
".	c #FF0080",
"        ",
"        ",
"  ......",
"  ......",
"      ..",
"       .",
".....   ",
"......  ",
"......  ",
"......  ",
".       ",
".      ."};
