/* XPM */
static const char * Coin5[] = {
"16 16 5 1",
" 	c None",
".	c #FF0080",
"+	c #E5A016",
"@	c #CC810A",
"#	c #F2C130",
".......+@@......",
"......+++++.....",
"......+#+@@.....",
".....+##++++....",
".....+#+#+@@....",
"....+#++#+++....",
"....+#++#+++....",
"....+#++#+@@....",
"....+#++#+@@....",
"....+#++#+++....",
"....+#++#+++....",
".....+#+#+@@....",
".....+##++++....",
"......+#+@@.....",
"......+++++.....",
".......+@@......"};
