/* XPM */
static const char * Coin2[] = {
"16 16 4 1",
" 	c #FF0080",
".	c #CC810A",
"+	c #E5A016",
"@	c #F2C130",
"     .++++      ",
"    +++@@@+     ",
"   .+@@@@@@+    ",
"   ++@@++@@+    ",
"  .+@@++++@@+   ",
"  ++@@+@@+@@+   ",
"  ++@+@+@@+@+   ",
"  .+@+@ +@+@+   ",
"  .+@+@ +@+@+   ",
"  ++@+@+@@+@+   ",
"  ++@@+@@+@@+   ",
"  .+@@++++@@+   ",
"   ++@@++@@+    ",
"   .+@@@@@@+    ",
"    +++@@@+     ",
"     .++++      "};
