/* XPM */
static const char * Coin1[] = {
"16 16 4 1",
" 	c None",
".	c #FF0080",
"+	c #E5A016",
"@	c #F2C130",
".....++++++.....",
"...++@@@@@@++...",
"..+@@@@@@@@@@+..",
".+@@@++++++@@@+.",
".+@@++++++++@@+.",
"+@@+++@@@@+++@@+",
"+@@++@@..@@++@@+",
"+@@++@....@++@@+",
"+@@++@....@++@@+",
"+@@++@@..@@++@@+",
"+@@+++@@@@+++@@+",
".+@@++++++++@@+.",
".+@@@++++++@@@+.",
"..+@@@@@@@@@@+..",
"...++@@@@@@++...",
".....++++++....."};
