/* XPM */
static const char * Coin4[] = {
"16 16 4 1",
" 	c None",
".	c #FF0080",
"+	c #CC810A",
"@	c #E5A016",
".......++.......",
".......@@.......",
"......++++......",
"......@@@@......",
"......++++......",
"......@@@@......",
"......@@@@......",
"......++++......",
"......++++......",
"......@@@@......",
"......@@@@......",
"......++++......",
"......@@@@......",
"......++++......",
".......@@.......",
".......++......."};
