/* XPM */
static const char * Cursor_Left_Click[] = {
"17 21 3 1",
" 	c #FF0080",
".	c #000000",
"+	c #FFFFFF",
"     ..          ",
"    .++.         ",
"    .++.         ",
"    .++.         ",
"    .++.         ",
"    .++...       ",
"    .++.++...    ",
"    .++.++.++..  ",
"... .++.++.++.+. ",
".++..++.++.++.++.",
".++++++++++++.++.",
" .++++++++++++++.",
"  .+++++++++++++.",
"  .+++++++++++++.",
"   .++++++++++++.",
"   .+++++++++++. ",
"    .++++++++++. ",
"    .++++++++++. ",
"     .++++++++.  ",
"     .++++++++.  ",
"     ..........  "};
