/* XPM */
static const char * Dois_Pontos[] = {
"1 8 2 1",
" 	c #FF0080",
".	c #FFFFFF",
" ",
" ",
".",
".",
" ",
" ",
".",
"."};
