/* XPM */
static const char * Dot[] = {
"14 14 3 1",
" 	c None",
".	c #FF0080",
"+	c #000000",
".....++++.....",
"...++++++++...",
"..++++++++++..",
".++++++++++++.",
".++++++++++++.",
"++++++++++++++",
"++++++++++++++",
"++++++++++++++",
"++++++++++++++",
".++++++++++++.",
".++++++++++++.",
"..++++++++++..",
"...++++++++...",
".....++++....."};
