/* XPM */
static const char * Missil2[] = {
"16 16 3 1",
" 	c None",
".	c #FF0000",
"+	c #FF0080",
"....++++++++....",
"....++++++++....",
"......++++......",
"......++++......",
"++............++",
"++............++",
"++++........++++",
"++++........++++",
"++++........++++",
"++++........++++",
"++............++",
"++............++",
"......++++......",
"......++++......",
"....++++++++....",
"....++++++++...."};
