/* XPM */
static const char * Missil9[] = {
"32 32 6 1",
" 	c None",
".	c #FF0080",
"+	c #FFB600",
"@	c #FF4300",
"#	c #FFD12B",
"$	c #FFFFFF",
"........++++@@@@@@@@++++........",
"........++++@@@@@@@@++++........",
"..@@@@++##$$@@@@@@@@$$##++@@@@..",
"..@@@@++##$$@@@@@@@@$$##++@@@@..",
"..@@@@@@++##++@@@@++##++@@@@@@..",
"..@@@@@@++##++@@@@++##++@@@@@@..",
"..@@@@@@++++++@@@@++++++@@@@@@..",
"..@@@@@@++++++@@@@++++++@@@@@@..",
"++##++@@++++########++++@@++##++",
"++##++@@++++########++++@@++##++",
"++$$##++++##$$####$$##++++##$$++",
"++$$##++++##$$####$$##++++##$$++",
"@@@@++++##$$##@@@@##$$##++++@@@@",
"@@@@++++##$$##@@@@##$$##++++@@@@",
"@@@@@@@@####@@@@@@@@####@@@@@@@@",
"@@@@@@@@####@@@@@@@@####@@@@@@@@",
"@@@@@@@@####@@@@@@@@####@@@@@@@@",
"@@@@@@@@####@@@@@@@@####@@@@@@@@",
"@@@@++++##$$##@@@@##$$##++++@@@@",
"@@@@++++##$$##@@@@##$$##++++@@@@",
"++$$##++++##$$####$$##++++##$$++",
"++$$##++++##$$####$$##++++##$$++",
"++##++@@++++########++++@@++##++",
"++##++@@++++########++++@@++##++",
"..@@@@@@++++++@@@@++++++@@@@@@..",
"..@@@@@@++++++@@@@++++++@@@@@@..",
"..@@@@@@++##++@@@@++##++@@@@@@..",
"..@@@@@@++##++@@@@++##++@@@@@@..",
"..@@@@++##$$@@@@@@@@$$##++@@@@..",
"..@@@@++##$$@@@@@@@@$$##++@@@@..",
"........++++@@@@@@@@++++........",
"........++++@@@@@@@@++++........"};
