/* XPM */
static const char * Missil3[] = {
"20 20 3 1",
" 	c None",
".	c #FF0000",
"+	c #FF0080",
"....++++++++++++....",
"....++++++++++++....",
"......++++++++......",
"......++++++++......",
"++......++++......++",
"++......++++......++",
"++++............++++",
"++++............++++",
"++++++........++++++",
"++++++........++++++",
"++++++........++++++",
"++++++........++++++",
"++++............++++",
"++++............++++",
"++......++++......++",
"++......++++......++",
"......++++++++......",
"......++++++++......",
"....++++++++++++....",
"....++++++++++++...."};
