/* XPM */
static const char * Missil1[] = {
"12 12 3 1",
" 	c None",
".	c #FF0000",
"+	c #FF0080",
"....++++....",
"....++++....",
"............",
"............",
"++........++",
"++........++",
"++........++",
"++........++",
"............",
"............",
"....++++....",
"....++++...."};
