/* XPM */
static const char * Missil4[] = {
"24 24 3 1",
" 	c None",
".	c #FF0000",
"+	c #FF0080",
"....++++++++++++++++....",
"....++++++++++++++++....",
"......++++++++++++......",
"......++++++++++++......",
"++......++++++++......++",
"++......++++++++......++",
"++++......++++......++++",
"++++......++++......++++",
"++++++............++++++",
"++++++............++++++",
"++++++++........++++++++",
"++++++++........++++++++",
"++++++++........++++++++",
"++++++++........++++++++",
"++++++............++++++",
"++++++............++++++",
"++++......++++......++++",
"++++......++++......++++",
"++......++++++++......++",
"++......++++++++......++",
"......++++++++++++......",
"......++++++++++++......",
"....++++++++++++++++....",
"....++++++++++++++++...."};
