/* XPM */
static const char * Missil7[] = {
"32 32 6 1",
" 	c None",
".	c #FF0080",
"+	c #000000",
"@	c #96551C",
"#	c #C13124",
"$	c #FF8C00",
"................................",
"................................",
"................................",
"................................",
"................................",
"................................",
"................................",
"................................",
"............++++++++............",
"............++++++++............",
"..........++@@@@@@@@++..........",
"..........++@@@@@@@@++..........",
"........++@@@@++++@@@@++........",
"........++@@@@++++@@@@++........",
"......++##++++$$$$++++##++......",
"......++##++++$$$$++++##++......",
"......++####++$$$$++####++......",
"......++####++$$$$++####++......",
"........++@@@@++++@@@@++........",
"........++@@@@++++@@@@++........",
"..........++@@@@@@@@++..........",
"..........++@@@@@@@@++..........",
"............++++++++............",
"............++++++++............",
"................................",
"................................",
"................................",
"................................",
"................................",
"................................",
"................................",
"................................"};
