/* XPM */
static const char * Missil6[] = {
"32 32 3 1",
" 	c None",
".	c #FF0000",
"+	c #FF0080",
"....++++++++++++++++++++++++....",
"....++++++++++++++++++++++++....",
"......++++++++++++++++++++......",
"......++++++++++++++++++++......",
"++......++++++++++++++++......++",
"++......++++++++++++++++......++",
"++++......++++++++++++......++++",
"++++......++++++++++++......++++",
"++++++......++++++++......++++++",
"++++++......++++++++......++++++",
"++++++++......++++......++++++++",
"++++++++......++++......++++++++",
"++++++++++............++++++++++",
"++++++++++............++++++++++",
"++++++++++++........++++++++++++",
"++++++++++++........++++++++++++",
"++++++++++++........++++++++++++",
"++++++++++++........++++++++++++",
"++++++++++............++++++++++",
"++++++++++............++++++++++",
"++++++++......++++......++++++++",
"++++++++......++++......++++++++",
"++++++......++++++++......++++++",
"++++++......++++++++......++++++",
"++++......++++++++++++......++++",
"++++......++++++++++++......++++",
"++......++++++++++++++++......++",
"++......++++++++++++++++......++",
"......++++++++++++++++++++......",
"......++++++++++++++++++++......",
"....++++++++++++++++++++++++....",
"....++++++++++++++++++++++++...."};
