/* XPM */
static const char * Missil8[] = {
"32 32 7 1",
" 	c None",
".	c #FF0080",
"+	c #000000",
"@	c #96551C",
"#	c #FF8C00",
"$	c #FFD400",
"%	c #C13124",
"................................",
"................................",
"..........++++++++++++..........",
"..........++++++++++++..........",
"......++++@@@@@@@@@@@@++++......",
"......++++@@@@@@@@@@@@++++......",
"....++@@@@@@@@@@@@@@@@@@@@++....",
"....++@@@@@@@@@@@@@@@@@@@@++....",
"....++@@@@@@++++++++@@@@@@++....",
"....++@@@@@@++++++++@@@@@@++....",
"++++@@@@@@++##$$$$##++@@@@@@++++",
"++++@@@@@@++##$$$$##++@@@@@@++++",
"++%%++@@++$$$$####$$$$++@@++%%++",
"++%%++@@++$$$$####$$$$++@@++%%++",
"++%%%%++++$$##$$$$##$$++++%%%%++",
"++%%%%++++$$##$$$$##$$++++%%%%++",
"++++%%%%++$$##$$$$##$$++%%%%++++",
"++++%%%%++$$##$$$$##$$++%%%%++++",
"..++++++++$$$$####$$$$++++++++..",
"..++++++++$$$$####$$$$++++++++..",
"..++@@@@@@++##$$$$##++@@@@@@++..",
"..++@@@@@@++##$$$$##++@@@@@@++..",
"....++@@@@@@++++++++@@@@@@++....",
"....++@@@@@@++++++++@@@@@@++....",
"....++@@@@@@@@@@@@@@@@@@@@++....",
"....++@@@@@@@@@@@@@@@@@@@@++....",
"......++++@@@@@@@@@@@@++++......",
"......++++@@@@@@@@@@@@++++......",
"..........++++++++++++..........",
"..........++++++++++++..........",
"................................",
"................................"};
