/* XPM */
static const char * Missil5[] = {
"28 28 3 1",
" 	c None",
".	c #FF0000",
"+	c #FF0080",
"....++++++++++++++++++++....",
"....++++++++++++++++++++....",
"......++++++++++++++++......",
"......++++++++++++++++......",
"++......++++++++++++......++",
"++......++++++++++++......++",
"++++......++++++++......++++",
"++++......++++++++......++++",
"++++++......++++......++++++",
"++++++......++++......++++++",
"++++++++............++++++++",
"++++++++............++++++++",
"++++++++++........++++++++++",
"++++++++++........++++++++++",
"++++++++++........++++++++++",
"++++++++++........++++++++++",
"++++++++............++++++++",
"++++++++............++++++++",
"++++++......++++......++++++",
"++++++......++++......++++++",
"++++......++++++++......++++",
"++++......++++++++......++++",
"++......++++++++++++......++",
"++......++++++++++++......++",
"......++++++++++++++++......",
"......++++++++++++++++......",
"....++++++++++++++++++++....",
"....++++++++++++++++++++...."};
