/* XPM */
static const char * NoveMoeda[] = {
"8 12 2 1",
" 	c #FF0080",
".	c #FFFFFF",
"  ......",
" .......",
"...   ..",
"..    ..",
"...   ..",
" .......",
"  ......",
"      ..",
"      ..",
"      ..",
"      ..",
"      .."};
