/* XPM */
static const char * Nove[] = {
"5 8 2 1",
" 	c #FF0080",
".	c #FFFBFB",
" ... ",
".   .",
".   .",
" ....",
"    .",
"    .",
"    .",
"    ."};
