/* XPM */
static const char * Nuke[] = {
"16 16 5 1",
" 	c None",
".	c #E8BF28",
"+	c #000000",
"@	c #109316",
"#	c #FFFFFF",
"..+..........+..",
".+++........+++.",
"+++++......+++++",
"++++++....++++++",
"++++++....++++++",
"+++++..++..+++++",
"......++++......",
"......+++@@@@@@@",
".......++@#####@",
".........@@@@@#@",
".......++@@@##@@",
"......+++@#####@",
"......+++@@##@@@",
".....++++@#@@@@@",
".....++++@#####@",
"......+++@@@@@@@"};
