/* XPM */
static const  char * Oito[] = {
"5 8 3 1",
" 	c #FF0080",
".	c #FFFDFD",
"+	c #FF2684",
" ... ",
".   .",
".   .",
"+...+",
"+...+",
".   .",
".   .",
" ... "};
