/* XPM */
static const char * OitoMoeda[] = {
"8 12 2 1",
" 	c #FF0080",
".	c #FFFFFF",
"  ....  ",
" ...... ",
"...  ...",
"..    ..",
"..    ..",
"........",
" ...... ",
"...  ...",
"..    ..",
"..    ..",
"........",
" ...... "};
