/* XPM */
static const char * Quatro[] = {
"5 8 3 1",
" 	c #FF0080",
".	c #FFFDFD",
"+	c #FFFFFF",
"  .  ",
" .   ",
".    ",
".  . ",
"...+.",
"   . ",
"   . ",
"   . "};
