/* XPM */
static const char * QuatroMoeda[] = {
"8 12 2 1",
" 	c #FF0080",
".	c #FFFFFF",
"   ..   ",
"  ...   ",
" ...    ",
"...     ",
"..      ",
".. ..   ",
"........",
"........",
"   ..   ",
"   ..   ",
"   ..   ",
"   ..   "};
