/* XPM */
static const char * Seis[] = {
"5 8 2 1",
" 	c #FF0080",
".	c #FFFDFD",
"  .  ",
" .   ",
".    ",
".    ",
".... ",
".   .",
".   .",
" ... "};
