/* XPM */
static const char * SeisMoeda[] = {
"8 12 2 1",
" 	c #FF0080",
".	c #FFFFFF",
"  ..    ",
" ...    ",
"...     ",
"..      ",
"..      ",
"......  ",
"....... ",
"..   ...",
"..    ..",
"..    ..",
"........",
" ...... "};
