/* XPM */
static const char * Sete[] = {
"5 8 3 1",
" 	c #FFFDFD",
".	c #FF0080",
"+	c #FFFBFB",
"     ",
".... ",
"... .",
".++ +",
"... .",
"... .",
".. ..",
".. .."};
