/* XPM */
static const char * Start_Button_Pressed[] = {
"96 30 255 2",
"  	c #000100",
". 	c #002130",
"+ 	c #002326",
"@ 	c #002422",
"# 	c #00251C",
"$ 	c #032632",
"% 	c #003923",
"& 	c #0C3A12",
"* 	c #093D05",
"= 	c #163811",
"- 	c #123B0C",
"; 	c #093E0E",
"> 	c #083D31",
", 	c #074302",
"' 	c #004D03",
") 	c #094631",
"! 	c #52332B",
"~ 	c #413C2C",
"{ 	c #005030",
"] 	c #005227",
"^ 	c #1B4E0B",
"/ 	c #FF0080",
"( 	c #1B4E1A",
"_ 	c #005622",
": 	c #005541",
"< 	c #2D4289",
"[ 	c #045B0B",
"} 	c #15560F",
"| 	c #1F5600",
"1 	c #275214",
"2 	c #065B20",
"3 	c #2C5022",
"4 	c #424A30",
"5 	c #375022",
"6 	c #056205",
"7 	c #23562A",
"8 	c #235920",
"9 	c #4B457A",
"0 	c #3A5701",
"a 	c #474E3A",
"b 	c #295927",
"c 	c #494A63",
"d 	c #195A53",
"e 	c #434F45",
"f 	c #394E77",
"g 	c #276005",
"h 	c #314CB0",
"i 	c #0A6816",
"j 	c #87431A",
"k 	c #10661F",
"l 	c #106529",
"m 	c #096B04",
"n 	c #266112",
"o 	c #435534",
"p 	c #216127",
"q 	c #0F690E",
"r 	c #335D1B",
"s 	c #57522B",
"t 	c #22631F",
"u 	c #4F514E",
"v 	c #345A46",
"w 	c #2E601D",
"x 	c #1A6716",
"y 	c #3B5D22",
"z 	c #644C56",
"A 	c #2C622C",
"B 	c #21690C",
"C 	c #00750F",
"D 	c #405F31",
"E 	c #11710C",
"F 	c #685619",
"G 	c #0E7318",
"H 	c #097704",
"I 	c #197301",
"J 	c #1E7014",
"K 	c #306A1B",
"L 	c #0F7139",
"M 	c #88501C",
"N 	c #5C5E1A",
"O 	c #4D6503",
"P 	c #346930",
"Q 	c #007D0A",
"R 	c #077A17",
"S 	c #2C6D2B",
"T 	c #2F6D25",
"U 	c #396A27",
"V 	c #14752B",
"W 	c #396D14",
"X 	c #276D50",
"Y 	c #2B7217",
"Z 	c #456B12",
"` 	c #1D7623",
" .	c #18781E",
"..	c #426B25",
"+.	c #1C7815",
"@.	c #306F34",
"#.	c #4E6919",
"$.	c #2A7322",
"%.	c #157C0D",
"&.	c #696312",
"*.	c #28752B",
"=.	c #616242",
"-.	c #27781D",
";.	c #B65008",
">.	c #088314",
",.	c #1D756B",
"'.	c #118308",
").	c #4F7200",
"!.	c #17801D",
"~.	c #397526",
"{.	c #34762E",
"].	c #00890E",
"^.	c #5E5DAE",
"/.	c #277E11",
"(.	c #915B3F",
"_.	c #227F24",
":.	c #267F1D",
"<.	c #128800",
"[.	c #3E66D2",
"}.	c #208316",
"|.	c #2F7E22",
"1.	c #0F8824",
"2.	c #14881A",
"3.	c #327D30",
"4.	c #1A880F",
"5.	c #26850C",
"6.	c #477B10",
"7.	c #0D8E16",
"8.	c #218724",
"9.	c #6E6B5E",
"0.	c #2E8330",
"a.	c #916723",
"b.	c #2B862B",
"c.	c #208C15",
"d.	c #198D20",
"e.	c #228A2E",
"f.	c #19910C",
"g.	c #766A7F",
"h.	c #288B25",
"i.	c #6A7916",
"j.	c #2E8B15",
"k.	c #966750",
"l.	c #5A8100",
"m.	c #18931C",
"n.	c #36817A",
"o.	c #0D9815",
"p.	c #159805",
"q.	c #2C9211",
"r.	c #229514",
"s.	c #259328",
"t.	c #997038",
"u.	c #129C25",
"v.	c #6275BD",
"w.	c #D1651D",
"x.	c #778024",
"y.	c #249923",
"z.	c #6674D1",
"A.	c #1B9D1C",
"B.	c #209A2C",
"C.	c #5478E6",
"D.	c #6273F3",
"E.	c #2D982C",
"F.	c #73870A",
"G.	c #589007",
"H.	c #519020",
"I.	c #5286B0",
"J.	c #409098",
"K.	c #8D853C",
"L.	c #778F2F",
"M.	c #A48230",
"N.	c #97883A",
"O.	c #5F88E4",
"P.	c #649A23",
"Q.	c #648AC7",
"R.	c #998C21",
"S.	c #A38A1F",
"T.	c #6D8AFB",
"U.	c #B48D18",
"V.	c #8C982C",
"W.	c #5AA82E",
"X.	c #6FA51A",
"Y.	c #F77E26",
"Z.	c #ED841F",
"`.	c #DC8734",
" +	c #869C70",
".+	c #DC8A28",
"++	c #A29F08",
"@+	c #E88B14",
"#+	c #8A9D7B",
"$+	c #84A36C",
"%+	c #77B51B",
"&+	c #DA9835",
"*+	c #A7AD00",
"=+	c #9CA28E",
"-+	c #63BD2B",
";+	c #C4A223",
">+	c #AAA093",
",+	c #D8A400",
"'+	c #66BF4A",
")+	c #9DB13D",
"!+	c #75C212",
"~+	c #84A6FF",
"{+	c #FF9635",
"]+	c #D0A24B",
"^+	c #80BA73",
"/+	c #7FC600",
"(+	c #86BA80",
"_+	c #7BC27B",
":+	c #9ABA88",
"<+	c #BDC009",
"[+	c #E8B500",
"}+	c #A8B997",
"|+	c #99BF94",
"1+	c #FFA94C",
"2+	c #FEA96E",
"3+	c #FFAB58",
"4+	c #A5B6FE",
"5+	c #98BAFE",
"6+	c #88D730",
"7+	c #78DB4C",
"8+	c #E0C129",
"9+	c #8EDD0B",
"0+	c #A2D439",
"a+	c #CDC740",
"b+	c #BFCAB0",
"c+	c #A5D59F",
"d+	c #B4D2A2",
"e+	c #A8E22B",
"f+	c #E0D235",
"g+	c #FFCE07",
"h+	c #B9D4B0",
"i+	c #9BED21",
"j+	c #F4D612",
"k+	c #C1D8A9",
"l+	c #E9DB1D",
"m+	c #CCD8BC",
"n+	c #E3E7D6",
"o+	c #DEEAD0",
"p+	c #D3EFCD",
"q+	c #CDF3C9",
"r+	c #BDFAB7",
"s+	c #CAFCBA",
"t+	c #D5FAC4",
"u+	c #EFF7CA",
"v+	c #D5FFD5",
"w+	c #E6FFD5",
"x+	c #E6FFDB",
"y+	c #E7FFE4",
"z+	c #F2FEDE",
"A+	c #EEFFE4",
"B+	c #FCFCE4",
"C+	c #F6FEE5",
"D+	c #F1FFEC",
"E+	c #FEFDF3",
"F+	c #FAFFEF",
"% % % % % % > # # # # # # # # # @ + + + + + + @ @ @ @ @ @ @ @ @ @ # @ # @ # @ # @ # @ # @ # @ @ @ @ @ @ @ @ @ @ @ @ @ @ @ @ @ @ + + + + + + + + + + + + + + + @ # # # # # # + $ $ $ + + . / / / ",
", , ^ ^ ^ ^ ^ * * * * * * * * ; & & & & & & & & & & & & & & - - - - - - - - - - - - - - - - - - - - - - - - - - - - - - - - - - = = = = = & = & & - - - - - - ; * , , , , * ; & % & & & % / / / ",
"* ( ( ( 8 8 8 ( ( 3 3 3 3 3 ( ( 7 7 3 7 3 7 7 7 7 7 7 7 b b b b b b b b b b b b b b b b b b b b b b b b b b b b b b b b b b b A 8 p 8 p p p p p p p p w t t t t t x x x B x k t p p k 2 _ ) / / ",
"; ( b 8 A A A b b b b b b b A A A A A A A A A P A P P P P P P @.@.@.@.@.@.@.@.@.@.@.@.@.@.@.@.@.@.@.@.@.@.@.@.@.@.@.@.@.@.@.@.{.{.*.*.*.*.*.*.*.*.*.*.V ` ` ` ` ` ` -. .+.+. .` V ` G G V ] / / ",
"* ( 8 p P p p P P P P P P P @.@.S T S {.S {.{.{.{.{.{.{.{.{.{.3.3.0.0.0.0.0.0.0.0.0.0.0.0.0.0.0.0.0.0.0.0.0.0.0.0.0.0.0.0.0.0.0.0.0.0.0.0.0.0.0.b.b.b.b.b.b.b.b.0.0.0.b.:.}.8.8.b.8.}.}.!.k : / ",
"* ( 8 8 t t t @.S S S S S S U ..#.#.#.Z ..~.~.$.` -.-.-.-.-.|.|.b.8.b.b.b.b.8.8.b.8.8.8.b.0.|.b.b.e.h.8.8.:.8.8.8.8.e.e.h.h.8.8.h.h.h.e.b.b.b.8.h.h.h.8.8.h.h.h.b.0.b.8.}.}.}.}.8.}.'.4.%.0.] / ",
"; ( 8 w w t S k t $.i ` ` K N M.]+]+]+M.&.#.W -.:.!.!.8.:.b.-.|.:.8.R 8.:.8.%.d.8.8.2.2.0.V 0.` 0.e.h.d.!./.2.d.8.e.e. .h.d.%.}.>.c.s.d._.b.!.}.4.7.d.2.2.4.4.2.2.2.2.2.2.4.4.>.>.>.>.Q %. .i { ",
"* ( 8 w t n i ` $.x J q J Z M.`..+1+1+`.a.&.Z -./.}.%.H E :.:.+.!.H 1.h.+.}.2.H R !.'.4.` 3.*.` `  .>.Q }.h.Q d.R !.8.1.>.4.4.5.4.'.Q h.` 0.:.5.4.7.d.2.4.4.7.].4.4.4.4.4.'.'.'.'.'.>.Q %.C m _ ",
", 1 b A k q G G ` i ` x W x.&+Z.Z.1+{+w.M F O 6.I I 5.q.j.E R R >.4.Q C !.}.>.d.!.}.'.'. .*.x -.:.%.m.'.5.%.4.'.2.2.2.7.].].'.}.%.h.!._.*.*.-.I }.4.d.1.4.4.4.4.4.4.4.4.'.'.'.'.'.'.>.%.%.C m _ ",
", } b A k q C C G i ` K O S..+Y.{+3+Y.w.j F O G.%+-+-+7+'+/.}.>.'.'.>.8.J -.:.E _._.%.%.` _+s+r+J %.'.4./.:.h.!._.!.Q ].7.2.}.:.b.J -.3.(+r+s+|.%.2.1.1.2.4.4.4.4.4.2.4.4.4.'.'.'.'.>.Q %.C m 2 ",
", } 8 p l i C H E G i g O U.@+{+{+3+Y.;.M F O %+/+9+i+6+W.J '.Q Q !._.` T T {.t p S Y Y P |+x+s+K J %./.$.T x $.S 3.}.4.C _.3.t T {.S P h+y+s+K +.!.8.1.2.4.4.].7.4.d.4.4.4.'.'.'.'.>.Q %.C m 2 ",
", } } k l k E I H E J g V.U..+`.2+2+w.;.M N ).%+/+9+i+6+H.B '.4.H :.i {.c+q+x+y+q+|+t w q+D+A+x+w+~.-.Y c+t+w+x+q+(+J I 0.r+v+:+(+t+v+q+D+D+x+t+-.!.8.1.2.4.7.7.d.d.4.4.4.4.4.4.4.'.'.Q %.H m k ",
", } n k l k B J I I +.B L.N.t.(.k.(.j j F O G.!+9+i+i+/+6.| I '.}.G *.c+A+D+y+D+E+o+:+D D+E+D+z+t+w ~.^+A+D+x+A+D+q+|.|.S v+y+h+x+w+w+A+E+F+x+s+-.!.8.1.4.4.7.7.7.d.4.4.4.4.4.].4.'.'.Q %.H m k ",
", } [ x k k t B m I  .k D 9.z g.g.z z ! s #.X.!+9+9+e+X.| n %.'.H :.*.v+A+=+a =+n+E+t+5 a F+F+#+y ..n w+x+b+o b+E+A+g Y P D+D+D+k+$+5 o E+E+ +w J }.1.d.4.7.q.7.7.d.7.4.7.].].].].'.'.'.%.H E k ",
", } [ i J i t t J _.k X I.^.z.~+4+v.^.9 a #.P.%+0+0+)+L.^ k _.}.'.%.J v+x+m+4 4 a b+$+y #+F+z+5 w W ~.1 o a 4 4 E+A+W W P D+D+h+3 y 5 #+E+F+5 U +.2.d.d.7.r.o.o.m.d.7.7.7.].].].].'.'.'.H H E k ",
", } x q E m x x q G L n.O.D.T.4+4+C.h 9 =.i.).l.F.F.F.0 | ` +.%.'.4._.r+A+C+A+m+=+o y r }+D+o+D n B T c+o+D+B+F+F+z+g W :+A+A+o r U y }+E+n+5 n }.7.m.m.r.r.o.o.m.7.7.7.7.7.7.].].].'.>.%.H E k ",
"; 2 k E H I I I Q H L J.O.C.~+5+~+C.h c N.++++*+*+<+a+O m >.4.r.].c.q S }+o+C+C+F+m+r 1 k+A+m+5 ~.Y c+x+F+F+F+B+E+m+....m+F+m+5 K ~...k+D+m+D ~.d.m.m.m.r.p.A.o.m.m.7.7.7.7.7.7.].].'.>.%.H E k ",
"; 2 i C H H H Q '.C L J.O.C.4+5+T.[.< u S.8+j+j+l+l+a+0 6 >.].<.].>.` c+o ~ a b+F+x+....p+F+b+D K $.x+D+m+>+a n+F+m+r r m+F+h+r -.|.~.t+C+m+1 Y c.o.r.r.r.p.A.A.m.m.m.m.7.r.q.r.7.].4.>.%.R E 2 ",
"* [ m H H H Q Q Q V ,.I.O.T.4+5+T.h f =.U.,+[+g+j+l+V.| +.1.d.].7.}.$.x+o+a 4 =+F+z+..r p+F+b+D Y x D+E+>+~ m+F+F+}+y y n+F+:+K /.h.Y t+C+h+U -.7.o.o.r.r.p.A.A.o.o.r.r.r.r.r.r.7.].4.>.%.R E 2 ",
", [ I H H C Q Q Q V n.I.Q.Q.Q.Q.z.< e K.;+[+g+g+j+l+F.g E 1.2.].4.>.` x+C+F+C+C+C+d+K K q+D+D+x+-.B x+E+B+B+C+A+C+3 w P A+C+w B c.'.|.r+A+A+t+-.7.o.o.r.r.r.A.A.o.o.o.o.r.r.r.r.7.].'.>.%.R m _ ",
", [ I H H C H Q R G L X d d v d f c N R.;+[+g+g+j+f+).B Q r.r.<.q.].8._+t+z+w+w+d+U Y B (+x+x+s+%./.:+C+B+u+$+w+w+T $.^+y+t+J <.f.A.:.^+x+A+r+:.7.A.A.y.q.r.o.u.A.o.o.o.r.r.r.r.7.].'.>.R R m ] ",
"' 6 I H H H %.Q Q C J } [ [ , ( > v #.V.a+8+8+f+f+)+g J 7.<.<.f.p.<.}.-.K w T n K B /./.Y t t Y '.4.T D y y K K Y Y +.-.{.K 5.<.p.r.}.Y U w $.:.m.A.A.y.r.r.m.o.A.A.o.o.o.r.r.q.7.].'.>.%.C i { ",
"[ 6 m H %.%.Q '.'.'.Q Q >.Q H G } w g Z i.V.V.V.O Z B +.4.7.q.f.q.<.4.'.%.I I I /.%.5.5.}././.%.4.4./.-.-.I I I %.5.j.4.}.}.4.r.o.r.7.5.%./.}.4.y.r.r.r.r.r.r.o.A.A.p.p.o.f.q.f.].].].4.'.C l d ",
"' 6 m E %.%.Q '.].].].].].].].Q C +.q g | g | ^ g B J %.4.7.f.f.q.f.f.<.].4.4.4.4.4.c.c.4.4.4.4.c.c.c.4.4.4.4.4.c.c.m.m.r.r.r.A.A.A.r.r.7.7.c.m.m.r.r.r.r.r.o.o.o.o.p.p.f.7.7.7.].4.'.'.'.G ] / ",
"' 6 m E %.Q Q '.'.].].].].].].].4.2.}.H E J m m I H '.q.o.o.o.o.o.f.f.o.r.r.r.r.r.r.r.r.r.r.r.r.r.r.r.r.y.r.r.r.r.r.r.A.A.A.A.A.A.A.A.A.A.r.y.y.y.y.u.A.A.A.A.A.o.o.o.o.r.7.7.7.2.>.'.%.}.k ) / ",
"' 6 G +.!.}.>.2.'.4.4.4.4.].d.7.m.m.m.c.c.c.c.c.c.m.o.o.o.o.p.A.A.o.u.o.u.y.y.y.y.y.y.y.y.u.u.u.u.u.y.u.y.y.y.y.y.y.y.u.u.u.u.u.u.A.A.u.u.y.y.y.y.y.u.u.u.A.A.u.m.m.r.r.7.c.4.4.2.}.}.R  .2 d / ",
"' [ q  .!.!.!.>.2.2.2.2.2.2.2.d.m.7.7.7.7.7.7.7.m.m.r.r.r.r.r.r.y.y.y.y.s.y.s.y.E.y.E.y.E.y.y.y.y.y.E.E.E.E.E.E.B.B.B.B.B.B.B.u.u.u.y.y.B.B.B.B.E.E.E.y.y.u.u.y.s.d.c.c.d.2.>.}.!.R !.G k ] / / ",
"' [ q J  .!.!.!.8.8.!.8.8.8.8.2.d.4.2.4.d.c.c.7.7.7.7.c.c.c.h.}.d.d.d.s.s.s.s.s.s.s.s.s.s.s.s.s.s.s.s.s.s.s.s.E.E.E.E.E.E.E.E.E.E.B.E.E.s.s.s.s.s.s.s.s.s.s.s.s.h.h.d.}.8.!.!.!._. .G i 2 : / / ",
"' [ x i J G G +.+.+.+.+.+.+.+.+.+.+.+.+.+.+.+.R R R R +.+.-.J J +.+.+.+.+.+.:.:.!.!.!.!.!.!.!.!.!.!.!.!.:.:.:.:._._._._._._._.:.!.!.:._._._._._._._._.:.:.!.!.R  ._.:.+. . . .G q i i k ] / / / ",
"' [ [ [ [ 6 6 6 6 6 6 6 6 6 6 6 6 6 6 6 6 6 6 6 6 6 6 6 [ [ n [ 6 6 6 6 6 6 6 6 6 6 6 6 q q q 6 6 6 6 6 6 6 6 6 6 6 6 6 6 6 6 6 6 6 6 6 B 6 i i i x 6 6 6 q q 6 i 6 6 6 6 6 6 6 [ [ [ 2 { / / / "};
