/* XPM */
static const char * TresMoeda[] = {
"8 12 2 1",
" 	c #FF0080",
".	c #FFFFFF",
" ...... ",
"........",
".     ..",
"      ..",
"     ...",
"  ..... ",
"  ..... ",
"     ...",
"      ..",
".     ..",
"........",
" ...... "};
