/* XPM */
static const char * Um[] = {
"5 8 4 1",
" 	c None",
".	c #FF0080",
"+	c #FFFDFD",
"@	c #FFFFFF",
"..+..",
".++..",
"+.+..",
"..+..",
"..+..",
"..+..",
"..+..",
"++@++"};
