/* XPM */
static const char * UmMoeda[] = {
"8 12 2 1",
" 	c #FF0080",
".	c #FFFFFF",
"   ..   ",
"  ...   ",
" ....   ",
".....   ",
".. ..   ",
"   ..   ",
"   ..   ",
"   ..   ",
"   ..   ",
"   ..   ",
"........",
"........"};
