/* XPM */
static const char * Virtual_Box[] = {
"26 34 7 1",
" 	c None",
".	c #FF0080",
"+	c #EAF3F8",
"@	c #34495E",
"#	c #C6CAD5",
"$	c #6D83B4",
"%	c #A1A8C4",
"..........++++++..........",
"..........++++++..........",
"......++++@@@@@@++++......",
"......++++@@@@@@++++......",
"..++++@@@@+@@@+@@@@@++++..",
"..++++@@@+@@+++@@+@@++++..",
"++++@@@@+@@+@@+++++@@@++++",
"++++@@@@+++@@+@@@+@@@@++++",
"##++++@@@@@@@@@@+@@@++++$$",
"##++++@@@@@@@@@+@@@@++++$$",
"######++++@@@@@@++++$$$$$$",
"######++++@@@@@@++++$$$$$$",
"##@@@@####++++++$$$$@@@@$$",
"##@@@@####++++++$$$$@@##$$",
"##@@@@@@@@##%%$$@@@@@#@#$$",
"##@@@@@@@@##%%$$@@@@@##@$$",
"##@@@@@@@@##%%$$@@@#@#@#$$",
"##@@@@@@@@##%%$$@#@#@##@$$",
"##@@@@@@@@##%%$$@#@#@@@@$$",
"##@@@@@@@@##%%$$@##@@@@@$$",
"..##@@@@@@##%%$$@@#@@@$$..",
"..##@@@@@@##%%$$@@@@@@$$..",
"....##@@@@##%%$$@@@@$$....",
"....##@@@@##%%$$@@@@$$....",
"....@@##@@##%%$$@@$$@@....",
"....@@##@@##%%$$@@$$@@....",
"..####@@####%%$$$$@@####..",
"..####@@####%%$$$$@@####..",
"..$$####@@##%%$$@@####$$..",
"..$$####@@##%%$$@@####$$..",
"....$$####@@@@@@####$$....",
"....$$####@@@@@@####$$....",
"........$$######$$........",
"........$$######$$........" };
