/* XPM */
static const char * ZeroMoeda[] = {
"8 12 3 1",
" 	c None",
".	c #FF0080",
"+	c #FFFFFF",
"..++++..",
".++..++.",
"++....++",
"+......+",
"+......+",
"+......+",
"+......+",
"+......+",
"+......+",
"++....++",
".++..++.",
"..++++.."};
